<?xml version="1.0" encoding="utf-8"?>
<!-- Generator: Adobe Illustrator 16.0.3, SVG Export Plug-In . SVG Version: 6.00 Build 0)  -->
<!DOCTYPE svg PUBLIC "-//W3C//DTD SVG 1.1//EN" "http://www.w3.org/Graphics/SVG/1.1/DTD/svg11.dtd">
<svg version="1.1" id="Capa_1" xmlns="http://www.w3.org/2000/svg" xmlns:xlink="http://www.w3.org/1999/xlink" x="0px" y="0px"
	 width="595.28px" height="841.89px" viewBox="0 0 595.28 841.89" enable-background="new 0 0 595.28 841.89" xml:space="preserve">
<g>
	<path fill-rule="evenodd" clip-rule="evenodd" fill="#9AC049" d="M-508.014,793.469c-5.471-1.892-11.203-0.143-16.864-2.043
		c-3.507-1.178-7.422-2.288-11.387-2.337c-5.049-0.065-9.753-2.519-14.595-3.981c-8.708-2.637-17.033-6.596-25.382-10.331
		c-7.452-3.333-14.32-8.225-21.26-12.847c-6.043-4.026-11.879-8.756-16.72-14.075c-3.587-3.94-8.824-5.695-11.212-11.222
		c-2.329-5.387-6.532-9.135-10.194-13.331c-5.412-6.201-11.37-11.911-14.311-20.377c-0.365-1.048-1.271-1.708-2.23-2.24
		c-3.821-2.116-5.619-6.11-6.071-10.476c-0.371-3.577-2.79-5.623-3.743-8.789c-1.473-4.895-4.458-9.174-6.481-13.892
		c-2.34-5.454-5.405-10.691-5.159-17.172c0.016-0.432,0.093-0.942-0.07-1.288c-2.544-5.384-2.468-11.608-4.233-17.161
		c-1.103-3.469-1.408-6.856-1.976-10.357c-2.157-13.308-1.587-26.706-1.19-40.033c0.228-7.638,0.722-15.456,2.741-22.922
		c1.125-4.156,1.965-8.354,1.706-12.752c-0.133-2.24,0.376-4.232,1.575-6.092c0.649-1.009,1.151-2.32,1.276-3.556
		c0.767-7.588,2.995-14.751,5.781-21.527c3.667-8.915,6.134-18.427,10.232-27.04c2.542-5.341,6.338-9.944,9.291-15.118
		c0.913-1.602,1.806-3.096,2.119-4.962c0.266-1.577,0.614-3.105,1.565-4.355c7.645-10.051,13.104-21.897,21.551-31.468
		c4.959-5.618,9.337-12.605,14.315-18.204c9.436-10.613,19.001-21.271,29.773-30.322c7.594-6.38,14.63-13.64,22.367-19.772
		c7.82-6.197,15.099-13.285,23.539-18.504c4.525-2.798,8.575-6.545,13.348-8.924c0.809-0.405,1.255-1.744,1.87-2.654
		c2.44,0.343,3.923-1.736,5.724-2.96c13.326-9.061,27.354-16.657,40.73-25.667c18.941-12.761,38.583-24.171,57.766-36.479
		c4.641-2.979,10.076-4.804,13.432-10.067c4.732-4.69,9.678-9.134,14.138-14.136c5.037-5.649,9.687-11.751,14.413-17.749
		c4.499-5.704,8.76-11.78,10.421-19.284c1.17-5.291,1.855-10.607,4.598-15.286c1.071-1.827,1.187-4.265,0.599-6.313
		c-1.764-6.135-1.742-12.666-3.847-18.778c-4.88-14.168-11.642-25.931-25.75-29.618c-5.619-2.776-11.245-0.72-16.869-0.037
		c-4.542,0.505-9.067,2.113-12.799,4.519c-6.724,4.334-12.549,9.769-16.355,18.361c-5.682,12.831-5.857,25.836-3.053,38.893
		c1.846,8.595,5.69,16.694,9.062,24.787c1.98,4.751,5.779,8.276,7.881,13.047c0.257,1.693,0.605,3.377,0.739,5.082
		c0.098,1.246,0.229,2.972-1.421,2.934c-4.075-0.096-6.563,3.531-9.514,5.577c-7.071,4.9-14.292,9.494-21.447,14.216
		c-4.113,2.715-8.661,4.666-12.674,7.433c-10.997,7.584-22.806,13.414-33.785,21.027c-8.594,5.96-17.728,10.905-26.454,16.631
		c-2.984,1.958-6.449,2.732-7.574-0.225c-1.174-3.088-1.364-3.401-2.923-6.152c-1.65-2.911-0.713-2.25-1.63-3.049
		c-1.888-6.729-4.963-12.665-8.332-18.628c-3.128-5.536-4.535-12.302-6.873-18.442c-2.056-5.396-3.968-10.624-3.859-16.826
		c0.054-3.069-2.467-5.941-3.096-9.462c-1.41-7.895-2.026-15.871-2.618-23.837c-0.311-4.182-1.525-8.123-1.664-12.337
		c-0.225-6.83,1.283-13.439,1.938-20.113c0.902-9.199,1.875-18.483,4.109-27.541c2.041-8.273,5.693-15.518,9.37-22.814
		c1.808-3.585,4.231-6.788,5.885-10.451c3.148-6.972,8.666-11.509,13.039-17.212c11.826-15.424,27.255-24.881,43.031-33.89
		c14.325-8.182,29.564-13.208,45.027-17.402c5.624-1.525,11.541-1.961,17.348-2.217c8.516-0.374,17.121-0.915,25.564,0.034
		c10.888,1.223,21.883,0.677,32.699,4.192c8.475,2.754,16.511,6.385,24.537,10.283c3.7,1.798,7.855,2.066,11.383,4.529
		c4.413,3.08,8.196,7.422,12.533,10.19c7.658,4.889,12.696,12.667,19.167,18.776c5.538,5.229,8.395,12.471,12.226,18.983
		c5.994,10.188,9.161,21.855,12.57,33.288c1.415,4.746,1.592,10.138,2.289,15.201c1.321,9.597,1.551,19.15,1.201,28.72
		c-0.262,7.186-1.75,14.312-2.513,21.448c-0.635,5.934-3.052,11.141-3.713,16.962c-0.447,3.938-2.405,7.424-3.552,11.179
		c-4.821,15.774-12.721,29.724-21.165,43.23c-2.389,3.821-4.794,7.725-7.772,11.121c-7.962,9.083-15.531,18.622-23.676,27.483
		c-4.716,5.133-10.14,9.469-15.456,13.83c-2.001,1.641-1.801,2.771-0.45,4.436c0.688,0.849,1.39,1.695,2.142,2.471
		c8.369,8.638,14.372,19.629,22.331,28.772c4.469,5.133,9.104,10.39,13.058,16.135c3.698,5.371,7.786,10.359,11.259,15.999
		c2.931,4.758,6.435,9.297,10.158,13.521c6.927,7.858,13.983,15.581,20.297,24.155c2.253,3.061,5.688,5.188,7.953,8.429
		c7.2,10.306,16.334,18.417,24.224,27.93c1.26,1.516,2.602,2.597,4.395,2.95c0.382,0.746,0.636,1.642,1.163,2.212
		c6.872,7.446,13.833,14.807,20.802,22.111c10.511,11.02,21.834,21.064,33.062,31.167c3.607,3.244,6.71,7.545,11.496,8.908
		c3.926,3.577,7.738,7.332,11.817,10.67c2.714,2.222,6.452,2.014,9.188,4.62c2.63,2.505,5.838,3.797,9.36,3.791
		c3.82-0.006,7.645,0.15,11.458-0.024c9.274-0.42,16.002-7.409,15.726-18.188c-0.057-2.169-0.169-4.354-0.001-6.505
		c0.389-5.049-1.315-8.528-4.639-12.084c-1.656-1.772-4.563-1.864-5.208-4.845l0.129-0.128l-0.095,0.166
		c-2.384,0.954-3.199-2.521-5.364-2.392c-6.501,0.391-13.179-1.324-19.427,2.01c-4.254,2.271-9.284,3.381-12.458,7.348
		c-3.487,4.361-7.188,8.458-10.746,12.727c-1.09,0.047-2.074-0.312-1.012-1.631c3.736-4.647,7.243-9.674,11.542-13.551
		c3.119-2.813,1.836-3.806-0.262-5.57c-4.882-4.103-10.304-7.616-14.492-12.493c-9.574-11.138-20.648-20.192-30.89-30.387
		c-2.284-2.272-5.662-3.123-7.007-6.438c-1.683-4.146-5.017-5.639-8.221-7.455c0.782-2.905,3.338-3.473,5.119-5.086
		c6.26-5.669,12.681-11.263,19.898-15.039c4.261-2.229,8.683-4.491,13.291-5.998c10.684-3.493,21.564-4.578,32.663-4.527
		c5.797,0.026,11.373,1.113,16.66,3.146c9.705,3.731,19.953,5.96,28.68,12.675c4.446,3.424,8.604,7.27,13.114,10.619
		c9.372,6.96,16.752,16.573,24.25,25.84c3.943,4.874,7.337,10.466,10.081,16.552c2.396,5.315,4.976,10.561,7.463,15.844
		c4.75,10.092,7.183,21.048,9.132,32.106c2.36,13.396,1.786,27.2,0.636,40.493c-0.776,8.969-0.965,18.597-4.149,27.274
		c-2.583,7.037-5.196,14.106-8.378,20.804c-4.493,9.456-9.916,18.069-16.793,25.778c-7.174,8.044-15.303,13.93-24.217,18.679
		c-9.844,5.243-20.247,8.376-30.886,11.15c-16.289,4.25-32.662,2.936-49.009,2.979c-4.928,0.015-10.052-1.486-15.05-2.789
		c-4.86-1.267-9.745-2.316-14.567-3.905c-9.982-3.288-19.499-7.72-28.819-12.922c-10.581-5.907-20.887-12.318-30.835-19.476
		c-2.869-2.065-5.144-1.547-7.281,1.263c-0.997,1.31-2.173,2.438-3.223,3.695c-9.874,11.823-21.312,21.671-31.9,32.588
		c-2.954,3.046-5.84,6.174-8.771,9.247c-6.858,7.191-14.545,13.126-22.201,19.144c-6.605,5.192-13.144,10.483-20.036,15.178
		c-5.055,3.444-10.163,6.787-15.187,10.287c-8.69,6.052-17.779,11.293-27.075,15.942c-8.688,4.345-17.496,8.513-26.631,11.575
		c-8.866,2.973-17.789,5.729-26.704,8.504c-1.207,0.374-2.522,0.432-3.785,0.417c-4.931-0.055-9.596,1.448-14.263,2.979
		c-0.366,0.12-0.74,0.215-1.118,0.267c-5.165,0.709-10.435-0.548-15.552,1.06c-0.541-0.329-1.125-1.012-1.615-0.934
		c-7.402,1.193-14.838,0.229-22.247,0.581C-504.688,793.235-506.464,791.506-508.014,793.469z M-333.166,594.519
		c-1.374,2.807-3.722,4.597-5.688,6.741c-2.974,3.245-2.912,4.19-0.085,7.75c2.089,2.632,5.018,3.887,7.053,6.411
		c9.526,11.805,20.589,21.65,31.443,31.733c7.082,6.58,14.281,12.991,21.274,19.702c1.943,1.864,4.341,4.57,7.297,1.449
		c4.003-4.228,7.681-8.968,13.696-10.118c-1.862-2.83-3.822-4.378-5.803-5.924c-15.361-11.995-30.044-24.984-43.876-39.18
		c-6.005-6.161-11.692-12.721-17.6-19.008c-1.604-1.705-2.892-4.136-5.546-4.054c-1.514-0.625-2.334-2.178-3.415-3.362
		c-14.814-16.184-28.668-33.396-42.5-50.652c-4.935-6.155-9.542-12.631-14.498-18.771c-7.363-9.121-13.454-19.559-20.693-28.825
		c-4.522-5.786-8.478-12.104-13.352-17.595c-2.897-3.261-5.662-7.004-7.904-10.89c-5.193-8.99-11.259-17.133-17.376-25.267
		c-2.166-2.877-3.853-2.481-6.313-0.038c-9.326,9.258-15.895,20.428-20.009,33.701c-2.106,6.795-3.84,13.568-4.552,20.747
		c-0.631,6.351-2.254,12.514-2.596,18.978c-0.527,9.935,1.346,19.45,3.407,28.882c2.19,10.016,5.198,19.905,11.617,27.565
		c9.822,11.722,19.875,23.205,30.131,34.438c2.857,3.13,6.005,6.357,9.413,8.536c10.817,6.921,22.783,9.414,35.092,10.454
		c8.694,0.732,17.205-1.027,25.687-2.18c5.947-0.808,12.497-1.713,17.465-6.304c4.907-4.531,10.7-7.771,14.941-13.214
		C-335.5,594.999-334.493,594.519-333.166,594.519z M-455.044,430.211c2.524-1.47,3.787,0.095,5.492,1.707
		c2.355,2.227,3.414,5.261,4.938,7.987c4.123,7.376,8.231,8.154,14.166,2.439c0.387-0.374,0.692-0.864,1.098-1.203
		c6.602-5.528,13.133-11.167,19.843-16.517c7.768-6.193,16.087-11.582,23.437-18.343c6.673-6.137,13.632-11.802,20.396-17.776
		c6.089-5.38,12.877-9.644,18.666-15.535c3.624-3.689,6.774-8.291,11.979-9.565c1.533-0.377,1.118-1.766,0.373-2.675
		c-2.155-2.625-3.444-5.955-5.872-8.424c-2.813-2.863-5.782-5.96-7.485-9.667c-1.373-2.991-1.874-2.003-3.309-0.676
		c-5.975,5.53-11.989,11.02-18.046,16.419c-20.93,18.656-43.758,34.34-64.761,52.909
		C-441.108,417.46-448.495,423.028-455.044,430.211z"/>
	<path fill-rule="evenodd" clip-rule="evenodd" fill="#708B36" d="M-400.394,258.17c-3.356,5.263-8.791,7.088-13.432,10.067
		c-19.182,12.309-38.825,23.718-57.766,36.479c-13.376,9.01-27.404,16.605-40.73,25.667c-1.801,1.225-3.284,3.303-5.724,2.96
		c0.351-3.531-0.768-6.292-3.02-8.793c-5.055-5.614-7.826-12.948-11.141-19.861c-0.758-1.578,1.001,1.939,0.188,0.394
		c0.917,0.796-2.105-3.853-0.457-0.942c1.56,2.751,3.105,0.244,4.279,3.332c1.125,2.957,2.7,3.96,5.684,2.002
		c8.726-5.727,17.86-10.671,26.454-16.631c10.979-7.613,22.789-13.443,33.785-21.027c4.013-2.767,8.561-4.718,12.674-7.433
		c7.155-4.722,14.376-9.315,21.447-14.216c2.951-2.045,5.439-5.672,9.514-5.577c1.65,0.038,1.52-1.688,1.421-2.934
		c-0.134-1.705-0.482-3.389-0.739-5.082c3.095,4.635,5.936,9.529,9.371,13.808C-406.218,253.333-405.434,258.77-400.394,258.17z"/>
	<path fill-rule="evenodd" clip-rule="evenodd" fill="#708B36" d="M-163.126,547.524c-4.785-1.363-7.888-5.664-11.496-8.908
		c-11.227-10.103-22.55-20.147-33.062-31.167c-6.97-7.305-13.931-14.665-20.802-22.111c-0.527-0.57-0.781-1.466-1.163-2.212
		c5.413-5.182,9.789-11.701,15.921-15.958c3.201,1.814,6.535,3.308,8.218,7.453c1.346,3.314,4.724,4.165,7.007,6.438
		c10.241,10.194,21.316,19.249,30.89,30.387c4.188,4.877,9.61,8.391,14.492,12.493c2.098,1.765,4.771,3.694,1.892,6.82
		c-3.846,4.175-3.598,4.037-7.334,8.685c-1.063,1.319-3.818,4.378-4.739,6.191C-163.215,546.58-163.214,546.58-163.126,547.524z"/>
	<path fill-rule="evenodd" clip-rule="evenodd" fill="#708B36" d="M-363.449,609.329c1.08-1.154,2.317-0.139,3.467-0.185
		c5.16-0.207,10.338,0.359,15.494-0.342c0.341-0.046,0.748,0.355,1.125,0.549c-1.215,0.631-2.511,0.349-3.783,0.313
		c-4.17-0.225-8.344-0.237-12.517-0.003C-360.94,609.695-362.24,609.99-363.449,609.329z"/>
	<path fill-rule="evenodd" clip-rule="evenodd" fill="#9AC049" d="M-359.664,609.662c4.173-0.234,8.347-0.222,12.517,0.003
		C-351.321,610.05-355.492,610.051-359.664,609.662z"/>
	<path fill-rule="evenodd" clip-rule="evenodd" fill="#708B36" d="M-455.628,433.392c3.732-11.689,12.471-14.694,21.497-22.1
		c21.003-18.568,43.831-34.253,64.761-52.909c6.057-5.399,12.071-10.89,18.046-16.419c1.435-1.328,4.094-3.613,5.468-0.621
		c1.703,3.705,4.292,6.215,7.106,9.079c2.428,2.47,4.219,5.862,6.374,8.488c0.745,0.909-1.122,4.119-2.655,4.496
		c-5.205,1.275-8.355,5.876-11.979,9.565c-5.789,5.891-12.577,10.155-18.666,15.535c-6.763,5.975-13.723,11.64-20.396,17.776
		c-7.35,6.761-15.669,12.149-23.437,18.343c-6.709,5.35-13.241,10.988-19.843,16.517c-0.406,0.339-0.711,0.829-1.098,1.203
		c-5.935,5.715-11.422,6.05-15.545-1.326c-1.844-2.486-3.092-3.782-5.09-6.478C-452.789,432.93-453.104,431.92-455.628,433.392z"/>
	<path fill-rule="evenodd" clip-rule="evenodd" fill="#708B36" d="M-331.016,591.8c0.006-0.593,0.01-1.185,0.016-1.777
		c2.653-0.082,3.941,2.349,5.545,4.054c5.908,6.287,11.594,12.847,17.6,19.008c13.832,14.195,28.515,27.185,43.876,39.18
		c1.981,1.546,5.761,4.358,6.484,8.032c-6.016,1.148-8.143,6.667-12.146,10.894c-2.956,3.122-7.585-2.469-9.528-4.333
		c-6.993-6.711-14.192-13.122-21.274-19.702c-10.854-10.083-21.917-19.929-31.443-31.733c-2.035-2.524-4.963-3.779-7.053-6.411
		c-2.827-3.56-3.672-6.055-0.698-9.3c1.966-2.145,4.018-5.504,6.471-5.19c0,0,0.125-0.157,0.125-0.154
		C-332.858,593.026-333.497,592.611-331.016,591.8z"/>
	<polygon fill-rule="evenodd" clip-rule="evenodd" fill="#FEFEFE" points="-115.393,524.998 -115.297,524.832 -115.426,524.959 	"/>
</g>
</svg>
